<?xml version="1.0" encoding="iso-8859-1"?>
<!-- Uploaded to: SVG Repo, www.svgrepo.com, Generator: SVG Repo Mixer Tools -->
<!-- GI: 'font icon svg' -->
<!-- https://www.svgrepo.com/svg/18605/font -->
<svg fill="#000000" height="800px" width="800px" version="1.1" id="Layer_1" xmlns="http://www.w3.org/2000/svg" xmlns:xlink="http://www.w3.org/1999/xlink" 
	 viewBox="0 0 447 447" xml:space="preserve">
<g>
	<g>
		<path d="M379.371,0c-4.418,0-8,3.582-8,8v119.423c-28.449-62.894-91.792-106.762-165.19-106.762
			c-56.864,0-106.267,32.555-130.552,80.005V8c0-4.418-3.582-8-8-8c-4.418,0-8,3.582-8,8v431c0,4.418,3.582,8,8,8
			c4.418,0,8-3.582,8-8V286.056H353.59C321.173,359.19,247.894,410.34,162.883,410.34c-4.418,0-8,3.582-8,8c0,4.418,3.582,8,8,8
			c59.963,0,116.337-23.351,158.737-65.751c21.838-21.838,38.607-47.389,49.751-75.222V439c0,4.418,3.582,8,8,8c4.418,0,8-3.582,8-8
			V8C387.371,3.582,383.79,0,379.371,0z M206.181,36.661c18.516,0,36.33,3.063,52.963,8.707v96.435
			c-14.426-19.036-37.267-31.36-62.939-31.36H88.632C109.788,66.815,154.528,36.661,206.181,36.661z M75.629,270.056v-43.342
			c10.421,17.942,25.4,32.921,43.342,43.342H75.629z M75.63,167.213c-0.001-14.232,2.296-27.935,6.526-40.77h71.506
			c-13.594,11.878-22.207,29.323-22.207,48.751c0,29.445,23.956,53.4,53.401,53.4c24.438,0,44.321-19.882,44.321-44.32
			c0-20.433-16.624-37.057-37.057-37.057c-17.229,0-31.245,14.017-31.245,31.245c0,4.418,3.582,8,8,8c4.418,0,8-3.582,8-8
			c0-8.406,6.839-15.245,15.245-15.245c11.611,0,21.057,9.446,21.057,21.057c0,15.616-12.705,28.32-28.321,28.32
			c-20.623,0-37.401-16.777-37.401-37.4c0-26.882,21.87-48.751,48.751-48.751c34.705,0,62.939,28.234,62.939,62.938
			c0,44.483-36.19,80.674-80.673,80.674C121.765,270.055,75.63,223.92,75.63,167.213z M359.902,270.055l-128.227,0.001
			c26.17-17.317,43.469-47.011,43.469-80.674V51.764c56.744,26.178,96.227,83.605,96.227,150.087
			C371.371,225.727,367.325,248.674,359.902,270.055z"/>
	</g>
</g>
</svg>