<?xml version="1.0" encoding="iso-8859-1"?>
<!-- Uploaded to: SVG Repo, www.svgrepo.com, Generator: SVG Repo Mixer Tools -->
<!-- GI: 'font icon svg' -->
<!-- https://www.svgrepo.com/svg/67445/roll -->
<svg fill="#000000" height="800px" width="800px" version="1.1" id="Layer_1" xmlns="http://www.w3.org/2000/svg" xmlns:xlink="http://www.w3.org/1999/xlink" 
	 viewBox="0 0 422 422" xml:space="preserve">
<g>
	<g>
		<path d="M364.346,116.857h-32.961v-27c0-4.418-3.582-8-8-8h-22V8c0-4.418-3.582-8-8-8h-215c-4.418,0-8,3.582-8,8v73.857h-22
			c-4.418,0-8,3.582-8,8v27H27.083c-4.418,0-8,3.582-8,8c0,4.418,3.582,8,8,8h13.302v27c0,4.418,3.582,8,8,8h22V293
			c0,4.418,3.582,8,8,8h44.5v13c0,4.418,3.582,8,8,8h17v92c0,4.418,3.582,8,8,8h60c4.418,0,8-3.582,8-8v-92h17c4.418,0,8-3.582,8-8
			v-13h44.5c4.418,0,8-3.582,8-8v-64.046l69.271-11.488c18.693-3.1,32.262-19.104,32.262-38.052v-23.986
			C402.917,134.16,385.614,116.857,364.346,116.857z M86.385,16h199v65.857h-199V16z M207.884,406h-44v-84h44V406z M232.884,306h-94
			v-24h94V306z M285.385,285h-36.5v-11c0-4.418-3.582-8-8-8h-47v-0.081c0-11.088,7.939-20.453,18.879-22.268l72.621-12.044V285z
			 M285.385,215.389l-75.238,12.478c-18.694,3.1-32.262,19.104-32.262,38.052V266h-47c-4.418,0-8,3.582-8,8v11h-36.5V167.857h27.698
			V237.5c0,4.418,3.582,8,8,8c4.418,0,8-3.582,8-8v-69.643h39V201c0,4.418,3.582,8,8,8c4.418,0,8-3.582,8-8v-33.143h100.302V215.389
			z M56.384,151.857l0-54h259v54H56.384z M386.917,179.414c0,11.088-7.939,20.453-18.879,22.268l-66.653,11.054v-44.879h22
			c4.418,0,8-3.582,8-8v-27h32.961c12.446,0,22.571,10.125,22.571,22.571V179.414z"/>
	</g>
</g>
</svg>